<svg width="19" height="19" viewBox="0 0 19 19" fill="none" xmlns="http://www.w3.org/2000/svg">
<path d="M9.5026 18.0111C4.80802 18.0111 0.992188 14.1952 0.992188 9.50065C0.992188 4.80607 4.80802 0.990234 9.5026 0.990234C14.1972 0.990234 18.013 4.80607 18.013 9.50065C18.013 14.1952 14.1972 18.0111 9.5026 18.0111ZM9.5026 2.17773C5.4651 2.17773 2.17969 5.46315 2.17969 9.50065C2.17969 13.5382 5.4651 16.8236 9.5026 16.8236C13.5401 16.8236 16.8255 13.5382 16.8255 9.50065C16.8255 5.46315 13.5401 2.17773 9.5026 2.17773Z" fill="#EDEDED"/>
<path d="M9.50354 11.8824C9.35313 11.8824 9.20271 11.827 9.08396 11.7083L6.28938 8.9137C6.05979 8.68411 6.05979 8.30411 6.28938 8.07453C6.51896 7.84495 6.89896 7.84495 7.12854 8.07453L9.50354 10.4495L11.8785 8.07453C12.1081 7.84495 12.4881 7.84495 12.7177 8.07453C12.9473 8.30411 12.9473 8.68411 12.7177 8.9137L9.92313 11.7083C9.80437 11.827 9.65396 11.8824 9.50354 11.8824Z" fill="#EDEDED"/>
</svg>
