<svg width="14" height="14" viewBox="0 0 14 14" fill="none" xmlns="http://www.w3.org/2000/svg">
<path d="M7.58073 13.2702H2.91406C1.5024 13.2702 0.726562 12.4943 0.726562 11.0827V6.41602C0.726562 5.00435 1.5024 4.22852 2.91406 4.22852H5.83073C6.0699 4.22852 6.26823 4.42685 6.26823 4.66602V11.0827C6.26823 12.0043 6.65906 12.3952 7.58073 12.3952C7.8199 12.3952 8.01823 12.5935 8.01823 12.8327C8.01823 13.0718 7.8199 13.2702 7.58073 13.2702ZM2.91406 5.10352C1.9924 5.10352 1.60156 5.49435 1.60156 6.41602V11.0827C1.60156 12.0043 1.9924 12.3952 2.91406 12.3952H5.71406C5.50406 12.051 5.39323 11.6135 5.39323 11.0827V5.10352H2.91406Z" fill="#ADADAD"/>
<path d="M5.83073 5.10482H2.91406C2.6749 5.10482 2.47656 4.90648 2.47656 4.66732V3.50065C2.47656 2.61398 3.19406 1.89648 4.08073 1.89648H5.89489C6.02905 1.89648 6.1574 1.96064 6.23907 2.06564C6.32074 2.17647 6.34989 2.31649 6.31489 2.44482C6.27989 2.57315 6.26823 2.71898 6.26823 2.91732V4.66732C6.26823 4.90648 6.0699 5.10482 5.83073 5.10482ZM3.35156 4.22982H5.39323V2.91732C5.39323 2.86482 5.39323 2.81815 5.39323 2.77148H4.08073C3.67823 2.77148 3.35156 3.09815 3.35156 3.50065V4.22982Z" fill="#ADADAD"/>
<path d="M8.16406 8.02018C7.9249 8.02018 7.72656 7.82185 7.72656 7.58268V4.66602C7.72656 4.42685 7.9249 4.22852 8.16406 4.22852C8.40323 4.22852 8.60156 4.42685 8.60156 4.66602V7.58268C8.60156 7.82185 8.40323 8.02018 8.16406 8.02018Z" fill="#ADADAD"/>
<path d="M10.5 8.02018C10.2608 8.02018 10.0625 7.82185 10.0625 7.58268V4.66602C10.0625 4.42685 10.2608 4.22852 10.5 4.22852C10.7392 4.22852 10.9375 4.42685 10.9375 4.66602V7.58268C10.9375 7.82185 10.7392 8.02018 10.5 8.02018Z" fill="#ADADAD"/>
<path d="M10.4974 13.2702H8.16406C7.9249 13.2702 7.72656 13.0718 7.72656 12.8327V10.4993C7.72656 9.93935 8.1874 9.47852 8.7474 9.47852H9.91406C10.4741 9.47852 10.9349 9.93935 10.9349 10.4993V12.8327C10.9349 13.0718 10.7366 13.2702 10.4974 13.2702ZM8.60156 12.3952H10.0599V10.4993C10.0599 10.4177 9.99573 10.3535 9.91406 10.3535H8.7474C8.66573 10.3535 8.60156 10.4177 8.60156 10.4993V12.3952Z" fill="#ADADAD"/>
<path d="M3.5 10.3548C3.26083 10.3548 3.0625 10.1565 3.0625 9.91732V7.58398C3.0625 7.34482 3.26083 7.14648 3.5 7.14648C3.73917 7.14648 3.9375 7.34482 3.9375 7.58398V9.91732C3.9375 10.1565 3.73917 10.3548 3.5 10.3548Z" fill="#ADADAD"/>
<path d="M11.0859 13.2702H7.58594C6.17427 13.2702 5.39844 12.4943 5.39844 11.0827V2.91602C5.39844 1.50435 6.17427 0.728516 7.58594 0.728516H11.0859C12.4976 0.728516 13.2734 1.50435 13.2734 2.91602V11.0827C13.2734 12.4943 12.4976 13.2702 11.0859 13.2702ZM7.58594 1.60352C6.66427 1.60352 6.27344 1.99435 6.27344 2.91602V11.0827C6.27344 12.0043 6.66427 12.3952 7.58594 12.3952H11.0859C12.0076 12.3952 12.3984 12.0043 12.3984 11.0827V2.91602C12.3984 1.99435 12.0076 1.60352 11.0859 1.60352H7.58594Z" fill="#ADADAD"/>
</svg>
