<svg width="20" height="20" viewBox="0 0 20 20" fill="none" xmlns="http://www.w3.org/2000/svg">
<path d="M9.58073 18.1253C4.8724 18.1253 1.03906 14.292 1.03906 9.58366C1.03906 4.87533 4.8724 1.04199 9.58073 1.04199C14.2891 1.04199 18.1224 4.87533 18.1224 9.58366C18.1224 14.292 14.2891 18.1253 9.58073 18.1253ZM9.58073 2.29199C5.55573 2.29199 2.28906 5.56699 2.28906 9.58366C2.28906 13.6003 5.55573 16.8753 9.58073 16.8753C13.6057 16.8753 16.8724 13.6003 16.8724 9.58366C16.8724 5.56699 13.6057 2.29199 9.58073 2.29199Z" fill="#ADADAD"/>
<path d="M18.3365 18.9585C18.1781 18.9585 18.0198 18.9002 17.8948 18.7752L16.2281 17.1085C15.9865 16.8669 15.9865 16.4669 16.2281 16.2252C16.4698 15.9835 16.8698 15.9835 17.1115 16.2252L18.7781 17.8919C19.0198 18.1335 19.0198 18.5335 18.7781 18.7752C18.6531 18.9002 18.4948 18.9585 18.3365 18.9585Z" fill="#ADADAD"/>
</svg>
