<svg width="48" height="49" viewBox="0 0 48 49" fill="none" xmlns="http://www.w3.org/2000/svg">
<path d="M41.7186 17.2397L27.8586 6.1597C25.7186 4.4397 22.2586 4.4397 20.1386 6.1397L6.27858 17.2397C4.71858 18.4797 3.71858 21.0997 4.05858 23.0597L6.71858 38.9797C7.19858 41.8197 9.91858 44.1197 12.7986 44.1197H35.1986C38.0586 44.1197 40.7986 41.7997 41.2786 38.9797L43.9386 23.0597C44.2586 21.0997 43.2586 18.4797 41.7186 17.2397ZM23.9986 31.4997C21.2386 31.4997 18.9986 29.2597 18.9986 26.4997C18.9986 23.7397 21.2386 21.4997 23.9986 21.4997C26.7586 21.4997 28.9986 23.7397 28.9986 26.4997C28.9986 29.2597 26.7586 31.4997 23.9986 31.4997Z" fill="#2F5F8A"/>
</svg>
