<svg width="26" height="25" viewBox="0 0 26 25" fill="none" xmlns="http://www.w3.org/2000/svg">
<path d="M19.2632 0.53125H6.73642C3.27563 0.53125 0.460938 3.34586 0.460938 6.80655V18.2665C0.460938 21.7272 3.27563 24.5418 6.73642 24.5418H19.2632C22.724 24.5418 25.5387 21.7272 25.5387 18.2665V6.80655C25.5387 3.34586 22.724 0.53125 19.2632 0.53125ZM2.67445 6.80655C2.67445 4.5666 4.49641 2.74471 6.73642 2.74471H19.2632C21.5032 2.74471 23.3252 4.5666 23.3252 6.80655V18.2665C23.3252 20.5065 21.5032 22.3284 19.2632 22.3284H6.73642C4.49641 22.3284 2.67445 20.5065 2.67445 18.2665V6.80655Z" fill="white"/>
<path d="M13.0019 18.3746C16.2209 18.3746 18.8398 15.7557 18.8398 12.5369C18.8398 9.31805 16.2209 6.69922 13.0019 6.69922C9.78299 6.69922 7.16406 9.31805 7.16406 12.5369C7.16406 15.7557 9.78299 18.3746 13.0019 18.3746ZM13.0019 8.91383C15.0001 8.91383 16.6251 10.5388 16.6251 12.5369C16.6251 14.535 15.0001 16.16 13.0019 16.16C11.0038 16.16 9.37873 14.535 9.37873 12.5369C9.37873 10.5388 11.0038 8.91383 13.0019 8.91383Z" fill="white"/>
<path d="M19.3779 7.64238C20.2451 7.64238 20.951 6.93642 20.951 6.06924C20.951 5.20205 20.2451 4.49609 19.3779 4.49609C18.5107 4.49609 17.8047 5.20205 17.8047 6.06924C17.8047 6.93642 18.5107 7.64238 19.3779 7.64238Z" fill="white"/>
</svg>
