<svg width="48" height="49" viewBox="0 0 48 49" fill="none" xmlns="http://www.w3.org/2000/svg">
<path d="M37.9985 14.5C37.9985 14.86 37.9785 15.2 37.9385 15.54C37.6985 18.44 36.4185 21.06 34.4785 22.98C32.3185 25.16 29.3185 26.5 25.9985 26.5H19.7385C18.7385 26.5 17.8985 27.24 17.7585 28.22L16.2385 38.78C16.1185 39.56 15.5585 40.2 14.8185 40.4C14.6385 40.48 14.4585 40.5 14.2585 40.5H10.3585C9.11846 40.5 8.17848 39.4 8.37848 38.18L13.1584 9.52002C13.6384 6.62002 16.1385 4.5 19.0785 4.5H27.9985C33.5185 4.5 37.9985 8.98 37.9985 14.5Z" fill="#2F5F8A"/>
<path d="M41.9975 22.4993C41.9975 25.2593 40.8775 27.7593 39.0775 29.5793C37.2575 31.3793 34.7575 32.4993 31.9975 32.4993H27.6975C26.7175 32.4993 25.8775 33.1993 25.7175 34.1793L24.2776 42.8193C24.1176 43.7993 23.2775 44.4993 22.2975 44.4993H16.4375C16.0775 44.4993 15.7575 44.4193 15.4775 44.2593C15.0375 44.0193 15.3175 43.4393 15.7975 43.2393C17.5975 42.6593 18.9175 41.1193 19.1975 39.1993L20.4775 30.3593C20.5575 29.8593 20.9775 29.4993 21.4575 29.4993H25.9975C30.0175 29.4993 33.7975 27.9393 36.5975 25.1193C38.2575 23.4793 39.4975 21.4593 40.2175 19.2793C40.3775 18.7793 41.0375 18.6793 41.2575 19.1393C41.7375 20.1793 41.9975 21.2993 41.9975 22.4993Z" fill="#2F5F8A"/>
</svg>
