<svg width="24" height="24" viewBox="0 0 24 24" fill="none" xmlns="http://www.w3.org/2000/svg">
<path d="M11.5 21.75C5.85 21.75 1.25 17.15 1.25 11.5C1.25 5.85 5.85 1.25 11.5 1.25C17.15 1.25 21.75 5.85 21.75 11.5C21.75 17.15 17.15 21.75 11.5 21.75ZM11.5 2.75C6.67 2.75 2.75 6.68 2.75 11.5C2.75 16.32 6.67 20.25 11.5 20.25C16.33 20.25 20.25 16.32 20.25 11.5C20.25 6.68 16.33 2.75 11.5 2.75Z" fill="#FA541C"/>
<path d="M21.9975 22.7504C21.8075 22.7504 21.6175 22.6804 21.4675 22.5304L19.4675 20.5304C19.1775 20.2404 19.1775 19.7604 19.4675 19.4704C19.7575 19.1804 20.2375 19.1804 20.5275 19.4704L22.5275 21.4704C22.8175 21.7604 22.8175 22.2404 22.5275 22.5304C22.3775 22.6804 22.1875 22.7504 21.9975 22.7504Z" fill="#FA541C"/>
</svg>
