<svg width="14" height="14" viewBox="0 0 14 14" fill="none" xmlns="http://www.w3.org/2000/svg">
<path d="M7.00219 13.2716C6.86219 13.2716 6.72219 13.2541 6.58803 13.2133C3.56053 12.3791 1.36719 9.54994 1.36719 6.48161V3.92077C1.36719 3.26744 1.83969 2.56163 2.44636 2.3108L5.69553 0.980781C6.54136 0.636615 7.46885 0.636615 8.30885 0.980781L11.558 2.3108C12.1647 2.56163 12.6372 3.26744 12.6372 3.92077V6.48161C12.6372 9.54411 10.438 12.3733 7.41635 13.2133C7.28218 13.2541 7.14219 13.2716 7.00219 13.2716ZM7.00219 1.60495C6.66969 1.60495 6.34302 1.66913 6.02802 1.79746L2.77886 3.12744C2.49886 3.24411 2.24219 3.62327 2.24219 3.92661V6.48745C2.24219 9.16495 4.16719 11.6383 6.82136 12.3733C6.93802 12.4083 7.06635 12.4083 7.18302 12.3733C9.83719 11.6383 11.7622 9.16495 11.7622 6.48745V3.92661C11.7622 3.62327 11.5055 3.24411 11.2255 3.12744L7.97636 1.79746C7.66136 1.66913 7.33469 1.60495 7.00219 1.60495Z" fill="#ADADAD"/>
<path d="M7.0026 7.72982C6.11594 7.72982 5.39844 7.01232 5.39844 6.12565C5.39844 5.23898 6.11594 4.52148 7.0026 4.52148C7.88927 4.52148 8.60677 5.23898 8.60677 6.12565C8.60677 7.01232 7.88927 7.72982 7.0026 7.72982ZM7.0026 5.39648C6.6001 5.39648 6.27344 5.72315 6.27344 6.12565C6.27344 6.52815 6.6001 6.85482 7.0026 6.85482C7.4051 6.85482 7.73177 6.52815 7.73177 6.12565C7.73177 5.72315 7.4051 5.39648 7.0026 5.39648Z" fill="#ADADAD"/>
<path d="M7 9.47852C6.76083 9.47852 6.5625 9.28018 6.5625 9.04102V7.29102C6.5625 7.05185 6.76083 6.85352 7 6.85352C7.23917 6.85352 7.4375 7.05185 7.4375 7.29102V9.04102C7.4375 9.28018 7.23917 9.47852 7 9.47852Z" fill="#ADADAD"/>
</svg>
