<svg width="116" height="32" viewBox="0 0 116 32" fill="none" xmlns="http://www.w3.org/2000/svg">
<path d="M21.3374 11.3785C21.6179 10.8467 22.3795 10.8467 22.66 11.3785L23.8648 13.6619C23.973 13.867 24.1702 14.0102 24.3986 14.0498L26.9426 14.4899C27.535 14.5924 27.7703 15.3167 27.3513 15.7479L25.5519 17.5993C25.3904 17.7655 25.315 17.9974 25.348 18.2269L25.7155 20.7823C25.8011 21.3774 25.185 21.825 24.6455 21.5598L22.3286 20.4206C22.1206 20.3183 21.8768 20.3183 21.6688 20.4206L19.3519 21.5598C18.8124 21.825 18.1963 21.3774 18.2819 20.7823L18.6494 18.2269C18.6824 17.9974 18.607 17.7655 18.4455 17.5993L16.6461 15.7479C16.227 15.3167 16.4624 14.5924 17.0548 14.4899L19.5988 14.0498C19.8272 14.0102 20.0244 13.867 20.1326 13.6619L21.3374 11.3785Z" fill="#FF991F"/>
<path d="M39.3374 11.3785C39.6179 10.8467 40.3795 10.8467 40.66 11.3785L41.8648 13.6619C41.973 13.867 42.1702 14.0102 42.3986 14.0498L44.9426 14.4899C45.535 14.5924 45.7703 15.3167 45.3513 15.7479L43.5519 17.5993C43.3904 17.7655 43.315 17.9974 43.348 18.2269L43.7155 20.7823C43.8011 21.3774 43.185 21.825 42.6455 21.5598L40.3286 20.4206C40.1206 20.3183 39.8768 20.3183 39.6688 20.4206L37.3519 21.5598C36.8124 21.825 36.1963 21.3774 36.2819 20.7823L36.6494 18.2269C36.6824 17.9974 36.607 17.7655 36.4455 17.5993L34.6461 15.7479C34.227 15.3167 34.4624 14.5924 35.0548 14.4899L37.5988 14.0498C37.8272 14.0102 38.0244 13.867 38.1326 13.6619L39.3374 11.3785Z" fill="#FF991F"/>
<path d="M57.3374 11.3785C57.6179 10.8467 58.3795 10.8467 58.66 11.3785L59.8648 13.6619C59.973 13.867 60.1702 14.0102 60.3986 14.0498L62.9426 14.4899C63.535 14.5924 63.7703 15.3167 63.3513 15.7479L61.5519 17.5993C61.3904 17.7655 61.315 17.9974 61.348 18.2269L61.7155 20.7823C61.8011 21.3774 61.185 21.825 60.6455 21.5598L58.3286 20.4206C58.1206 20.3183 57.8768 20.3183 57.6688 20.4206L55.3519 21.5598C54.8124 21.825 54.1963 21.3774 54.2819 20.7823L54.6494 18.2269C54.6824 17.9974 54.607 17.7655 54.4455 17.5993L52.6461 15.7479C52.227 15.3167 52.4624 14.5924 53.0548 14.4899L55.5988 14.0498C55.8272 14.0102 56.0244 13.867 56.1326 13.6619L57.3374 11.3785Z" fill="#FF991F"/>
<path d="M75.3374 11.3785C75.6179 10.8467 76.3795 10.8467 76.66 11.3785L77.8648 13.6619C77.973 13.867 78.1702 14.0102 78.3986 14.0498L80.9426 14.4899C81.535 14.5924 81.7703 15.3167 81.3513 15.7479L79.5519 17.5993C79.3904 17.7655 79.315 17.9974 79.348 18.2269L79.7155 20.7823C79.8011 21.3774 79.185 21.825 78.6455 21.5598L76.3286 20.4206C76.1206 20.3183 75.8768 20.3183 75.6688 20.4206L73.3519 21.5598C72.8124 21.825 72.1963 21.3774 72.2819 20.7823L72.6494 18.2269C72.6824 17.9974 72.607 17.7655 72.4455 17.5993L70.6461 15.7479C70.227 15.3167 70.4624 14.5924 71.0548 14.4899L73.5988 14.0498C73.8272 14.0102 74.0244 13.867 74.1326 13.6619L75.3374 11.3785Z" fill="#FF991F"/>
<path d="M93.3374 11.3785C93.6179 10.8467 94.3795 10.8467 94.66 11.3785L95.8648 13.6619C95.973 13.867 96.1702 14.0102 96.3986 14.0498L98.9426 14.4899C99.535 14.5924 99.7703 15.3167 99.3513 15.7479L97.5519 17.5993C97.3904 17.7655 97.315 17.9974 97.348 18.2269L97.7155 20.7823C97.8011 21.3774 97.185 21.825 96.6455 21.5598L94.3286 20.4206C94.1206 20.3183 93.8768 20.3183 93.6688 20.4206L91.3519 21.5598C90.8124 21.825 90.1963 21.3774 90.2819 20.7823L90.6494 18.2269C90.6824 17.9974 90.607 17.7655 90.4455 17.5993L88.6461 15.7479C88.227 15.3167 88.4624 14.5924 89.0548 14.4899L91.5988 14.0498C91.8272 14.0102 92.0244 13.867 92.1326 13.6619L93.3374 11.3785Z" fill="#CBCBCB"/>
</svg>
