<svg width="48" height="49" viewBox="0 0 48 49" fill="none" xmlns="http://www.w3.org/2000/svg">
<path d="M43 31.5C43.56 31.5 44 31.94 44 32.5V34.5C44 37.82 41.32 40.5 38 40.5C38 37.2 35.3 34.5 32 34.5C28.7 34.5 26 37.2 26 40.5H22C22 37.2 19.3 34.5 16 34.5C12.7 34.5 10 37.2 10 40.5C6.68 40.5 4 37.82 4 34.5V30.5C4 29.4 4.9 28.5 6 28.5H25C27.76 28.5 30 26.26 30 23.5V12.5C30 11.4 30.9 10.5 32 10.5H33.68C35.12 10.5 36.44 11.28 37.16 12.52L38.44 14.76C38.62 15.08 38.38 15.5 38 15.5C35.24 15.5 33 17.74 33 20.5V26.5C33 29.26 35.24 31.5 38 31.5H43Z" fill="#2F5F8A"/>
<path d="M16 44.5C18.2091 44.5 20 42.7091 20 40.5C20 38.2909 18.2091 36.5 16 36.5C13.7909 36.5 12 38.2909 12 40.5C12 42.7091 13.7909 44.5 16 44.5Z" fill="#2F5F8A"/>
<path d="M32 44.5C34.2091 44.5 36 42.7091 36 40.5C36 38.2909 34.2091 36.5 32 36.5C29.7909 36.5 28 38.2909 28 40.5C28 42.7091 29.7909 44.5 32 44.5Z" fill="#2F5F8A"/>
<path d="M44 25.56V28.5H38C36.9 28.5 36 27.6 36 26.5V20.5C36 19.4 36.9 18.5 38 18.5H40.58L43.48 23.58C43.82 24.18 44 24.86 44 25.56Z" fill="#2F5F8A"/>
<path d="M26.16 4.5H11.38C7.3 4.5 4 7.8 4 11.88V24.64C4 25.74 4.9 26.64 6 26.64H24.3C26.34 26.64 28 24.98 28 22.94V6.34C28 5.32 27.18 4.5 26.16 4.5ZM20.14 14.64L15.96 18.68C15.66 18.96 15.28 19.1 14.92 19.1C14.54 19.1 14.16 18.96 13.88 18.68L11.86 16.76C11.26 16.18 11.24 15.22 11.82 14.62C12.38 14.02 13.34 14.02 13.94 14.58L14.92 15.52L18.06 12.48C18.66 11.9 19.6 11.92 20.18 12.52C20.76 13.12 20.74 14.06 20.14 14.64Z" fill="#2F5F8A"/>
</svg>
