<svg width="66" height="33" viewBox="0 0 66 33" fill="none" xmlns="http://www.w3.org/2000/svg">
<path d="M0.664062 4C0.664062 1.79086 2.45492 0 4.66406 0H61.6641C63.8732 0 65.6641 1.79086 65.6641 4V29C65.6641 31.2091 63.8732 33 61.6641 33H4.66406C2.45492 33 0.664062 31.2091 0.664062 29V4Z" fill="#FFF7F4"/>
<path d="M13.0469 13.6016H14.0781C14.5833 13.6016 15 13.5182 15.3281 13.3516C15.6615 13.1797 15.9089 12.9479 16.0703 12.6562C16.237 12.3594 16.3203 12.026 16.3203 11.6562C16.3203 11.2188 16.2474 10.8516 16.1016 10.5547C15.9557 10.2578 15.737 10.0339 15.4453 9.88281C15.1536 9.73177 14.7839 9.65625 14.3359 9.65625C13.9297 9.65625 13.5703 9.73698 13.2578 9.89844C12.9505 10.0547 12.7083 10.2786 12.5312 10.5703C12.3594 10.862 12.2734 11.2057 12.2734 11.6016H10.8281C10.8281 11.0234 10.974 10.4974 11.2656 10.0234C11.5573 9.54948 11.9661 9.17188 12.4922 8.89062C13.0234 8.60938 13.638 8.46875 14.3359 8.46875C15.0234 8.46875 15.625 8.59115 16.1406 8.83594C16.6562 9.07552 17.0573 9.4349 17.3438 9.91406C17.6302 10.388 17.7734 10.9792 17.7734 11.6875C17.7734 11.974 17.7057 12.2812 17.5703 12.6094C17.4401 12.9323 17.2344 13.2344 16.9531 13.5156C16.6771 13.7969 16.3177 14.0286 15.875 14.2109C15.4323 14.388 14.901 14.4766 14.2812 14.4766H13.0469V13.6016ZM13.0469 14.7891V13.9219H14.2812C15.0052 13.9219 15.6042 14.0078 16.0781 14.1797C16.5521 14.3516 16.9245 14.5807 17.1953 14.8672C17.4714 15.1536 17.6641 15.4688 17.7734 15.8125C17.888 16.151 17.9453 16.4896 17.9453 16.8281C17.9453 17.5365 17.7865 18.138 17.4688 18.6328C17.1562 19.1276 16.7292 19.5052 16.1875 19.7656C15.6458 20.026 15.0312 20.1562 14.3438 20.1562C13.849 20.1562 13.3828 20.0859 12.9453 19.9453C12.513 19.8047 12.1302 19.6016 11.7969 19.3359C11.4635 19.0651 11.2031 18.7344 11.0156 18.3438C10.8281 17.9479 10.7344 17.4974 10.7344 16.9922H12.1797C12.1797 17.388 12.2656 17.7344 12.4375 18.0312C12.6146 18.3281 12.8646 18.5599 13.1875 18.7266C13.5156 18.888 13.901 18.9688 14.3438 18.9688C15.0104 18.9688 15.5339 18.7943 15.9141 18.4453C16.2995 18.0964 16.4922 17.5677 16.4922 16.8594C16.4922 16.3854 16.3932 15.9974 16.1953 15.6953C15.9974 15.388 15.7161 15.1615 15.3516 15.0156C14.9922 14.8646 14.5677 14.7891 14.0781 14.7891H13.0469ZM20.125 18.9609C20.125 18.6745 20.2266 18.4297 20.4297 18.2266C20.6328 18.0182 20.8776 17.9141 21.1641 17.9141C21.4505 17.9141 21.6953 18.0182 21.8984 18.2266C22.1016 18.4297 22.2031 18.6745 22.2031 18.9609C22.2031 19.2474 22.1016 19.4922 21.8984 19.6953C21.6953 19.8984 21.4505 20 21.1641 20C20.8776 20 20.6328 19.901 20.4297 19.7031C20.2266 19.5052 20.125 19.2578 20.125 18.9609ZM31.7344 18.8125V20H24.2891V18.9609L28.0156 14.8125C28.474 14.3021 28.8281 13.8698 29.0781 13.5156C29.3333 13.1562 29.5104 12.8359 29.6094 12.5547C29.7135 12.2682 29.7656 11.9766 29.7656 11.6797C29.7656 11.1224 29.5938 10.6458 29.25 10.25C28.9062 9.85417 28.4167 9.65625 27.7812 9.65625C27.276 9.65625 26.8542 9.75521 26.5156 9.95312C26.1823 10.1458 25.9323 10.4167 25.7656 10.7656C25.599 11.1146 25.5156 11.5156 25.5156 11.9688H24.0703C24.0703 11.3281 24.2109 10.7422 24.4922 10.2109C24.7734 9.67969 25.1901 9.25781 25.7422 8.94531C26.2943 8.6276 26.974 8.46875 27.7812 8.46875C28.8542 8.46875 29.6927 8.7474 30.2969 9.30469C30.9062 9.86198 31.2109 10.5964 31.2109 11.5078C31.2109 11.9557 31.1146 12.4062 30.9219 12.8594C30.7292 13.3125 30.4714 13.763 30.1484 14.2109C29.8255 14.6536 29.4688 15.0859 29.0781 15.5078L26.0312 18.8125H31.7344Z" fill="#190803"/>
<path d="M44.0027 8.94098C44.2833 8.40922 45.0448 8.40922 45.3254 8.94097L47.549 13.1554C47.6572 13.3605 47.8544 13.5038 48.0828 13.5433L52.7781 14.3557C53.3706 14.4582 53.6059 15.1825 53.1869 15.6136L49.8658 19.0307C49.7042 19.197 49.6289 19.4288 49.6619 19.6583L50.3402 24.3749C50.4258 24.97 49.8096 25.4176 49.2701 25.1523L44.994 23.0497C44.7859 22.9474 44.5422 22.9474 44.3341 23.0497L40.058 25.1523C39.5185 25.4176 38.9024 24.97 38.9879 24.3749L39.6662 19.6583C39.6992 19.4288 39.6239 19.197 39.4623 19.0307L36.1413 15.6136C35.7222 15.1825 35.9576 14.4582 36.55 14.3557L41.2453 13.5433C41.4738 13.5038 41.671 13.3605 41.7791 13.1554L44.0027 8.94098Z" fill="#FF991F"/>
</svg>
