<svg width="78" height="80" viewBox="0 0 78 80" fill="none" xmlns="http://www.w3.org/2000/svg">
<path d="M1.16406 8.28697C1.16406 4.46312 4.2639 1.36328 8.08775 1.36328H70.0763C73.9002 1.36328 77 4.46312 77 8.28697V72.576C77 76.3999 73.9002 79.4997 70.0763 79.4997H8.08776C4.26391 79.4997 1.16406 76.3998 1.16406 72.576V8.28697Z" fill="#EDEDED"/>
<path d="M1.16406 8.28697C1.16406 4.46312 4.2639 1.36328 8.08775 1.36328H70.0763C73.9002 1.36328 77 4.46312 77 8.28697V72.576C77 76.3999 73.9002 79.4997 70.0763 79.4997H8.08776C4.26391 79.4997 1.16406 76.3998 1.16406 72.576V8.28697Z" stroke="#CBCBCB"/>
<path d="M30.4135 33.9401L30.3951 33.9585C30.1466 33.4156 29.9902 32.7991 29.9258 32.1182C29.9902 32.7899 30.165 33.3972 30.4135 33.9401Z" fill="#021526"/>
<path d="M36.3229 25.9992C37.5324 25.9992 38.5129 25.0187 38.5129 23.8092C38.5129 22.5997 37.5324 21.6191 36.3229 21.6191C35.1133 21.6191 34.1328 22.5997 34.1328 23.8092C34.1328 25.0187 35.1133 25.9992 36.3229 25.9992Z" fill="#021526"/>
<path d="M42.9364 18.2881H35.2252C31.8757 18.2881 29.8789 20.2849 29.8789 23.6344V31.3456C29.8789 32.3486 30.0537 33.2228 30.3942 33.9589C31.1856 35.7073 32.8787 36.6919 35.2252 36.6919H42.9364C46.2859 36.6919 48.2827 34.6951 48.2827 31.3456V29.2384V23.6344C48.2827 20.2849 46.2859 18.2881 42.9364 18.2881ZM46.7828 27.9501C46.0651 27.3336 44.9056 27.3336 44.1879 27.9501L40.3599 31.2352C39.6421 31.8517 38.4827 31.8517 37.7649 31.2352L37.4521 30.9775C36.7987 30.407 35.7589 30.3518 35.0228 30.8487L31.5813 33.1584C31.3788 32.6431 31.2592 32.0449 31.2592 31.3456V23.6344C31.2592 21.0395 32.6303 19.6684 35.2252 19.6684H42.9364C45.5314 19.6684 46.9024 21.0395 46.9024 23.6344V28.0513L46.7828 27.9501Z" fill="#021526"/>
<path d="M10.4639 61.415C10.2393 61.415 10.0505 61.3857 9.89746 61.3271C9.74772 61.2653 9.63053 61.2002 9.5459 61.1318C9.49707 61.5583 9.37826 61.9701 9.18945 62.3672C9.00391 62.7676 8.72396 63.1159 8.34961 63.4121C7.97526 63.7083 7.48047 63.9167 6.86523 64.0371L6.57715 63.2656C7.10775 63.1517 7.53092 62.9775 7.84668 62.7432C8.16243 62.512 8.3903 62.2337 8.53027 61.9082C8.6735 61.5827 8.74512 61.223 8.74512 60.8291C8.74512 60.5524 8.71419 60.2627 8.65234 59.96C8.59375 59.654 8.51074 59.3431 8.40332 59.0273L9.21387 58.7539L9.47754 59.7744C9.54915 60.0479 9.66309 60.2415 9.81934 60.3555C9.97559 60.4694 10.1725 60.5264 10.4102 60.5264H10.5957V61.415H10.4639ZM10.4053 60.5264H10.752V61.415H10.4053V60.5264ZM12.5537 56.1318L13.2373 56.8105L12.5537 57.499L11.875 56.8105L12.5537 56.1318ZM10.9326 56.1318L11.6162 56.8105L10.9326 57.499L10.2539 56.8105L10.9326 56.1318ZM12.1973 58.5293L13.0127 58.4316L13.0908 59.5742C13.1038 59.7826 13.1494 59.9583 13.2275 60.1016C13.3057 60.2415 13.4147 60.3473 13.5547 60.4189C13.6979 60.4906 13.8737 60.5264 14.082 60.5264H14.1846V61.415H14.0723C13.8314 61.415 13.623 61.3857 13.4473 61.3271C13.2715 61.2686 13.1217 61.1839 12.998 61.0732C12.8743 60.9626 12.7686 60.8275 12.6807 60.668C12.5049 60.9251 12.2738 61.1139 11.9873 61.2344C11.7008 61.3548 11.4014 61.415 11.0889 61.415H10.6201V60.5264H11.0889C11.5023 60.5264 11.7969 60.4336 11.9727 60.248C12.1517 60.0625 12.2412 59.7777 12.2412 59.3936C12.2412 59.2373 12.2363 59.0892 12.2266 58.9492C12.2201 58.8092 12.2103 58.6693 12.1973 58.5293ZM18.4375 54.9941L19.0967 55.6533L18.4375 56.3125L17.7783 55.6533L18.4375 54.9941ZM19.2725 56.2295L19.9316 56.8887L19.2725 57.5479L18.6133 56.8887L19.2725 56.2295ZM17.6025 56.2295L18.2617 56.8887L17.6025 57.5479L16.9434 56.8887L17.6025 56.2295ZM19.9512 61.415C19.6387 61.415 19.3864 61.3499 19.1943 61.2197C19.0023 61.0895 18.846 60.9056 18.7256 60.668C18.5433 60.9316 18.3398 61.1221 18.1152 61.2393C17.8939 61.3564 17.653 61.415 17.3926 61.415C17.0182 61.415 16.7285 61.3516 16.5234 61.2246C16.3216 61.0944 16.1605 60.9089 16.04 60.668C15.887 60.9089 15.6917 61.0944 15.4541 61.2246C15.2165 61.3516 14.8779 61.415 14.4385 61.415H13.9893V60.5264H14.4482C14.7282 60.5264 14.9561 60.4938 15.1318 60.4287C15.3076 60.3604 15.4378 60.248 15.5225 60.0918C15.6071 59.9355 15.6494 59.7207 15.6494 59.4473C15.6494 59.3887 15.6478 59.3252 15.6445 59.2568C15.6413 59.1885 15.6364 59.1071 15.6299 59.0127C15.6234 58.915 15.6136 58.7979 15.6006 58.6611L16.416 58.5586L16.4941 59.5791C16.5137 59.8525 16.5967 60.0788 16.7432 60.2578C16.8929 60.4368 17.1126 60.5264 17.4023 60.5264C17.7474 60.5264 17.9818 60.4336 18.1055 60.248C18.2292 60.0625 18.291 59.7956 18.291 59.4473C18.291 59.3887 18.2894 59.3252 18.2861 59.2568C18.2829 59.1885 18.278 59.1071 18.2715 59.0127C18.265 58.915 18.2552 58.7979 18.2422 58.6611L19.0576 58.5586L19.1357 59.5791C19.152 59.8428 19.222 60.0674 19.3457 60.2529C19.4694 60.4352 19.6696 60.5264 19.9463 60.5264C20.109 60.5264 20.2425 60.4857 20.3467 60.4043C20.4541 60.3197 20.5339 60.1976 20.5859 60.0381C20.6413 59.8786 20.6689 59.6816 20.6689 59.4473C20.6689 59.3301 20.6641 59.208 20.6543 59.0811C20.6478 58.9541 20.6364 58.7865 20.6201 58.5781L21.4355 58.4805L21.5137 59.5791C21.5332 59.8916 21.6243 60.1276 21.7871 60.2871C21.9531 60.4466 22.1842 60.5264 22.4805 60.5264H22.627V61.415H22.4902C22.1484 61.415 21.8636 61.3532 21.6357 61.2295C21.4079 61.1025 21.2516 60.9137 21.167 60.6631C21.0303 60.904 20.8724 61.0895 20.6934 61.2197C20.5176 61.3499 20.2702 61.415 19.9512 61.415ZM22.4268 60.5264H22.8174V61.415H22.4268V60.5264ZM24.1895 62.1914L24.873 62.8701L24.1895 63.5586L23.5107 62.8701L24.1895 62.1914ZM22.5684 62.1914L23.252 62.8701L22.5684 63.5586L21.8896 62.8701L22.5684 62.1914ZM24.2725 58.5293L25.0879 58.4316L25.166 59.5742C25.179 59.7826 25.2246 59.9583 25.3027 60.1016C25.3809 60.2415 25.4899 60.3473 25.6299 60.4189C25.7731 60.4906 25.9489 60.5264 26.1572 60.5264H26.2598V61.415H26.1475C25.9066 61.415 25.6982 61.3857 25.5225 61.3271C25.3467 61.2686 25.1969 61.1839 25.0732 61.0732C24.9495 60.9626 24.8438 60.8275 24.7559 60.668C24.5801 60.9251 24.349 61.1139 24.0625 61.2344C23.776 61.3548 23.4766 61.415 23.1641 61.415H22.6953V60.5264H23.1641C23.5775 60.5264 23.8721 60.4336 24.0479 60.248C24.2269 60.0625 24.3164 59.7777 24.3164 59.3936C24.3164 59.2373 24.3115 59.0892 24.3018 58.9492C24.2952 58.8092 24.2855 58.6693 24.2725 58.5293ZM26.0645 60.5264H26.2988V61.415H26.0645V60.5264ZM27.0703 62.1621L27.7783 62.8701L27.0703 63.5781L26.3623 62.8701L27.0703 62.1621ZM26.9629 61.415H26.167V60.5264H26.9531C27.2786 60.5264 27.4984 60.432 27.6123 60.2432C27.7295 60.0544 27.7881 59.8151 27.7881 59.5254C27.7881 59.3138 27.7686 59.0876 27.7295 58.8467C27.6904 58.6058 27.6481 58.3633 27.6025 58.1191L28.4521 57.9043C28.5075 58.1647 28.5514 58.4202 28.584 58.6709C28.6165 58.9215 28.6328 59.1608 28.6328 59.3887C28.6328 59.7793 28.5791 60.1276 28.4717 60.4336C28.3643 60.7396 28.1885 60.9805 27.9443 61.1562C27.7002 61.3288 27.373 61.415 26.9629 61.415ZM35.6299 61.415C35.4053 61.415 35.2165 61.3857 35.0635 61.3271C34.9137 61.2653 34.7965 61.2002 34.7119 61.1318C34.6631 61.5583 34.5443 61.9701 34.3555 62.3672C34.1699 62.7676 33.89 63.1159 33.5156 63.4121C33.1413 63.7083 32.6465 63.9167 32.0312 64.0371L31.7432 63.2656C32.2738 63.1517 32.6969 62.9775 33.0127 62.7432C33.3285 62.512 33.5563 62.2337 33.6963 61.9082C33.8395 61.5827 33.9111 61.223 33.9111 60.8291C33.9111 60.5524 33.8802 60.2627 33.8184 59.96C33.7598 59.654 33.6768 59.3431 33.5693 59.0273L34.3799 58.7539L34.6436 59.7744C34.7152 60.0479 34.8291 60.2415 34.9854 60.3555C35.1416 60.4694 35.3385 60.5264 35.5762 60.5264H35.7617V61.415H35.6299ZM35.5713 60.5264H36.3086V61.415H35.5713V60.5264ZM36.9727 61.415H36.1768V60.5264H36.9629C37.2884 60.5264 37.5081 60.432 37.6221 60.2432C37.7393 60.0544 37.7979 59.8151 37.7979 59.5254C37.7979 59.3138 37.7783 59.0876 37.7393 58.8467C37.7002 58.6058 37.6579 58.3633 37.6123 58.1191L38.4619 57.9043C38.5173 58.1647 38.5612 58.4202 38.5938 58.6709C38.6263 58.9215 38.6426 59.1608 38.6426 59.3887C38.6426 59.7793 38.5889 60.1276 38.4814 60.4336C38.374 60.7396 38.1982 60.9805 37.9541 61.1562C37.71 61.3288 37.3828 61.415 36.9727 61.415ZM37.666 62.1914L38.3496 62.8701L37.666 63.5586L36.9873 62.8701L37.666 62.1914ZM36.0449 62.1914L36.7285 62.8701L36.0449 63.5586L35.3662 62.8701L36.0449 62.1914ZM43.0859 60.5801C43.0859 61.2116 42.9688 61.7601 42.7344 62.2256C42.5033 62.6943 42.1549 63.0785 41.6895 63.3779C41.2272 63.6807 40.6494 63.8988 39.9561 64.0322L39.668 63.2559C40.1693 63.1582 40.6022 63.0199 40.9668 62.8408C41.3346 62.6618 41.6276 62.4404 41.8457 62.1768C42.0638 61.9163 42.1989 61.6185 42.251 61.2832C42.1273 61.3223 41.984 61.3564 41.8213 61.3857C41.6585 61.415 41.5153 61.4297 41.3916 61.4297C40.8057 61.4297 40.3613 61.3044 40.0586 61.0537C39.7591 60.8031 39.6094 60.4238 39.6094 59.916C39.6094 59.6751 39.6452 59.4342 39.7168 59.1934C39.7917 58.9492 39.8991 58.7262 40.0391 58.5244C40.1823 58.3193 40.3564 58.1549 40.5615 58.0312C40.7666 57.9076 40.9993 57.8457 41.2598 57.8457C41.569 57.8457 41.8376 57.9222 42.0654 58.0752C42.2965 58.2282 42.487 58.4349 42.6367 58.6953C42.7865 58.9557 42.8988 59.2487 42.9736 59.5742C43.0485 59.8997 43.0859 60.235 43.0859 60.5801ZM41.416 60.5459C41.5527 60.5459 41.6943 60.5361 41.8408 60.5166C41.9873 60.4938 42.1305 60.4613 42.2705 60.4189C42.2542 60.1455 42.2201 59.9046 42.168 59.6963C42.1191 59.4847 42.0524 59.3073 41.9678 59.1641C41.8831 59.0176 41.7806 58.9085 41.6602 58.8369C41.543 58.762 41.4062 58.7246 41.25 58.7246C41.0352 58.7246 40.8675 58.7913 40.7471 58.9248C40.6299 59.0583 40.5469 59.2161 40.498 59.3984C40.4525 59.5775 40.4297 59.7402 40.4297 59.8867C40.4297 60.1243 40.5111 60.2936 40.6738 60.3945C40.8366 60.4954 41.084 60.5459 41.416 60.5459ZM44.3164 54.6914H45.1416V59.3594C45.1416 59.8184 45.2262 60.1276 45.3955 60.2871C45.5648 60.4466 45.8203 60.5264 46.1621 60.5264H46.2842V61.415H46.1621C45.5404 61.415 45.0765 61.2507 44.7705 60.9219C44.4678 60.5898 44.3164 60.0674 44.3164 59.3545V54.6914ZM52.2021 58.3682C52.0101 58.3682 51.8115 58.4137 51.6064 58.5049C51.4046 58.5928 51.1963 58.7279 50.9814 58.9102C50.7699 59.0892 50.5534 59.3138 50.332 59.584C50.1107 59.8542 49.8861 60.1683 49.6582 60.5264H50.4492C50.9147 60.5264 51.32 60.5036 51.665 60.458C52.0101 60.4124 52.2965 60.3424 52.5244 60.248C52.7523 60.1536 52.9232 60.0332 53.0371 59.8867C53.151 59.7402 53.208 59.5661 53.208 59.3643C53.208 59.0778 53.1152 58.8402 52.9297 58.6514C52.7474 58.4626 52.5049 58.3682 52.2021 58.3682ZM50.4688 61.415H50.21C49.751 61.415 49.3652 61.3857 49.0527 61.3271C48.7402 61.2686 48.4896 61.1839 48.3008 61.0732C48.112 60.9626 47.9671 60.8291 47.8662 60.6729C47.6774 60.93 47.4642 61.1188 47.2266 61.2393C46.9922 61.3564 46.6797 61.415 46.2891 61.415H46.0889L46.0938 60.5264H46.2891C46.7448 60.5264 47.0508 60.4303 47.207 60.2383C47.3665 60.043 47.4463 59.7614 47.4463 59.3936C47.4463 59.2373 47.4398 59.0924 47.4268 58.959C47.417 58.8255 47.4089 58.6823 47.4023 58.5293L48.2178 58.4316L48.291 59.5742C48.3073 59.7923 48.3529 59.9811 48.4277 60.1406C48.5026 60.2969 48.6182 60.375 48.7744 60.375C49.0641 59.8802 49.3506 59.4521 49.6338 59.0908C49.9202 58.7262 50.2035 58.4251 50.4834 58.1875C50.7666 57.9499 51.0465 57.7725 51.3232 57.6553C51.6032 57.5381 51.8831 57.4795 52.1631 57.4795C52.5342 57.4795 52.863 57.5609 53.1494 57.7236C53.4391 57.8831 53.6654 58.1012 53.8281 58.3779C53.9909 58.6546 54.0723 58.9671 54.0723 59.3154C54.069 59.527 54.0365 59.7256 53.9746 59.9111C53.9128 60.0967 53.82 60.2708 53.6963 60.4336C53.7581 60.4499 53.8314 60.4661 53.916 60.4824C54.0039 60.4954 54.113 60.5068 54.2432 60.5166C54.3734 60.5231 54.5378 60.5264 54.7363 60.5264H54.8828V61.415H54.7412C54.3278 61.415 53.986 61.3727 53.7158 61.2881C53.4489 61.2035 53.2243 61.0863 53.042 60.9365C52.7751 61.0863 52.4235 61.2035 51.9873 61.2881C51.5511 61.3727 51.0449 61.415 50.4688 61.415ZM54.6924 60.5264H55.0391V61.415H54.6924V60.5264ZM56.8408 55.6826L57.5244 56.3613L56.8408 57.0498L56.1621 56.3613L56.8408 55.6826ZM55.2197 55.6826L55.9033 56.3613L55.2197 57.0498L54.541 56.3613L55.2197 55.6826ZM55.7031 61.415H54.9072V60.5264H55.6934C56.0189 60.5264 56.2386 60.432 56.3525 60.2432C56.4697 60.0544 56.5283 59.8151 56.5283 59.5254C56.5283 59.3138 56.5088 59.0876 56.4697 58.8467C56.4307 58.6058 56.3883 58.3633 56.3428 58.1191L57.1924 57.9043C57.2477 58.1647 57.2917 58.4202 57.3242 58.6709C57.3568 58.9215 57.373 59.1608 57.373 59.3887C57.373 59.7793 57.3193 60.1276 57.2119 60.4336C57.1045 60.7396 56.9287 60.9805 56.6846 61.1562C56.4404 61.3288 56.1133 61.415 55.7031 61.415ZM63.5938 59.2471V61.0635H62.8516V59.2471H61.2256V58.5049H62.8516V56.8252H63.5938V58.5049H65.2197V59.2471H63.5938ZM71.2988 59.0225V59.7646H66.1621V59.2324L69.3457 54.3057H70.083L69.292 55.7314L67.1875 59.0225H71.2988ZM70.3076 54.3057V61.415H69.4043V54.3057H70.3076Z" fill="#021526"/>
</svg>
